<svg class="icon fill-black" viewBox="0 0 1024 1024" xmlns="http://www.w3.org/2000/svg" width="22" height="22"> <path d="M853.333 437.336H512q-0.786 0-1.57-0.039-0.785-0.038-1.567-0.115-0.781-0.077-1.558-0.192-0.777-0.116-1.548-0.269-0.77-0.153-1.532-0.344-0.762-0.191-1.514-0.419-0.752-0.228-1.492-0.493-0.74-0.264-1.465-0.565-0.726-0.3-1.436-0.636t-1.403-0.707q-0.692-0.37-1.366-0.774-0.674-0.404-1.327-0.84-0.653-0.436-1.284-0.904t-1.239-0.967q-0.607-0.498-1.189-1.026-0.582-0.527-1.137-1.083-0.556-0.555-1.083-1.137-0.528-0.582-1.026-1.19-0.499-0.607-0.967-1.238-0.468-0.63-0.904-1.284-0.436-0.653-0.84-1.327-0.404-0.674-0.774-1.366-0.37-0.693-0.707-1.403-0.336-0.71-0.636-1.436t-0.565-1.466q-0.265-0.74-0.493-1.491-0.228-0.752-0.419-1.514-0.19-0.762-0.344-1.532-0.153-0.77-0.269-1.548-0.115-0.777-0.192-1.559-0.077-0.781-0.115-1.566-0.039-0.785-0.039-1.57 0-0.786 0.038-1.57 0.04-0.785 0.116-1.567 0.077-0.781 0.192-1.558 0.116-0.777 0.269-1.548 0.153-0.77 0.344-1.532 0.19-0.762 0.419-1.514 0.228-0.752 0.493-1.492 0.264-0.74 0.565-1.465 0.3-0.726 0.636-1.436t0.707-1.403q0.37-0.693 0.774-1.366 0.404-0.674 0.84-1.327 0.436-0.653 0.904-1.284t0.967-1.239q0.498-0.607 1.026-1.189 0.527-0.582 1.083-1.137 0.555-0.556 1.137-1.083 0.582-0.528 1.19-1.026 0.607-0.499 1.238-0.967 0.63-0.468 1.284-0.904 0.653-0.437 1.327-0.84 0.674-0.404 1.366-0.775 0.693-0.37 1.403-0.706 0.71-0.336 1.436-0.636t1.465-0.565q0.74-0.265 1.492-0.493 0.752-0.228 1.514-0.42 0.762-0.19 1.532-0.343 0.77-0.153 1.548-0.269 0.777-0.115 1.558-0.192 0.782-0.077 1.567-0.116 0.784-0.038 1.57-0.038h341.333q0.786 0 1.571 0.038 0.784 0.039 1.566 0.116 0.782 0.077 1.559 0.192 0.777 0.116 1.547 0.269 0.771 0.153 1.533 0.344 0.762 0.19 1.513 0.419 0.752 0.228 1.492 0.493 0.739 0.264 1.465 0.565 0.726 0.3 1.436 0.636t1.403 0.706q0.693 0.37 1.367 0.775 0.673 0.403 1.327 0.84 0.653 0.436 1.284 0.904t1.238 0.967q0.607 0.498 1.189 1.026 0.582 0.527 1.138 1.083 0.555 0.555 1.083 1.137 0.527 0.582 1.026 1.19 0.498 0.607 0.966 1.238 0.468 0.63 0.904 1.284 0.437 0.653 0.841 1.327 0.404 0.673 0.774 1.366 0.37 0.693 0.706 1.403 0.336 0.71 0.636 1.436 0.301 0.726 0.566 1.465 0.264 0.74 0.492 1.492 0.228 0.752 0.419 1.514 0.191 0.762 0.344 1.532 0.154 0.77 0.269 1.548 0.115 0.777 0.192 1.558 0.077 0.782 0.116 1.567 0.038 0.784 0.038 1.57 0 0.785-0.038 1.57-0.039 0.785-0.116 1.566-0.077 0.782-0.192 1.56-0.115 0.776-0.269 1.547-0.153 0.77-0.344 1.532-0.191 0.762-0.419 1.514-0.228 0.752-0.492 1.491-0.265 0.74-0.566 1.466-0.3 0.726-0.636 1.436t-0.706 1.403q-0.37 0.692-0.774 1.366-0.404 0.674-0.841 1.327-0.436 0.653-0.904 1.284t-0.966 1.239q-0.499 0.607-1.026 1.189-0.528 0.582-1.083 1.137-0.556 0.556-1.138 1.083-0.582 0.528-1.189 1.026-0.607 0.499-1.238 0.967-0.631 0.468-1.284 0.904-0.654 0.436-1.327 0.84-0.674 0.404-1.367 0.774t-1.403 0.707q-0.71 0.335-1.436 0.636-0.726 0.3-1.465 0.565-0.74 0.265-1.492 0.493-0.751 0.228-1.513 0.419-0.762 0.19-1.533 0.344-0.77 0.153-1.547 0.269-0.777 0.115-1.559 0.192-0.782 0.077-1.566 0.115-0.785 0.039-1.571 0.039z m32-32q0 0.785-0.038 1.57-0.039 0.785-0.116 1.566-0.077 0.782-0.192 1.56-0.115 0.776-0.269 1.547-0.153 0.77-0.344 1.532-0.191 0.762-0.419 1.514-0.228 0.752-0.492 1.491-0.265 0.74-0.566 1.466-0.3 0.726-0.636 1.436t-0.706 1.403q-0.37 0.692-0.774 1.366-0.404 0.674-0.841 1.327-0.436 0.653-0.904 1.284t-0.966 1.239q-0.499 0.607-1.026 1.189-0.528 0.582-1.083 1.137-0.556 0.556-1.138 1.083-0.582 0.528-1.189 1.026-0.607 0.499-1.238 0.967-0.631 0.468-1.284 0.904-0.654 0.436-1.327 0.84-0.674 0.404-1.367 0.774t-1.403 0.707q-0.71 0.335-1.436 0.636-0.726 0.3-1.465 0.565-0.74 0.265-1.492 0.493-0.751 0.228-1.513 0.419-0.762 0.19-1.533 0.344-0.77 0.153-1.547 0.269-0.777 0.115-1.559 0.192-0.782 0.077-1.566 0.115-0.785 0.039-1.571 0.039-0.785 0-1.57-0.039-0.784-0.038-1.566-0.115-0.782-0.077-1.559-0.192-0.777-0.116-1.548-0.269-0.77-0.153-1.532-0.344-0.762-0.191-1.514-0.419-0.752-0.228-1.491-0.493-0.74-0.264-1.466-0.565-0.725-0.3-1.435-0.636-0.711-0.336-1.403-0.707-0.693-0.37-1.367-0.774t-1.327-0.84q-0.653-0.436-1.284-0.904t-1.238-0.967q-0.608-0.498-1.19-1.026-0.582-0.527-1.137-1.083-0.556-0.555-1.083-1.137-0.528-0.582-1.026-1.19-0.498-0.607-0.966-1.238-0.468-0.63-0.905-1.284-0.436-0.653-0.84-1.327-0.404-0.674-0.774-1.366-0.37-0.693-0.706-1.403-0.336-0.71-0.637-1.436-0.3-0.726-0.565-1.466-0.265-0.74-0.493-1.491-0.228-0.752-0.419-1.514-0.191-0.762-0.344-1.532-0.153-0.77-0.268-1.548-0.116-0.777-0.193-1.559-0.077-0.781-0.115-1.566-0.039-0.785-0.039-1.57 0-0.786 0.039-1.57 0.038-0.785 0.115-1.567 0.077-0.781 0.193-1.558 0.115-0.777 0.268-1.548 0.153-0.77 0.344-1.532 0.191-0.762 0.419-1.514 0.228-0.752 0.493-1.492t0.565-1.465q0.301-0.726 0.637-1.436t0.706-1.403q0.37-0.693 0.774-1.366 0.404-0.674 0.84-1.327 0.437-0.653 0.905-1.284t0.966-1.239q0.498-0.607 1.026-1.189 0.527-0.582 1.083-1.137 0.555-0.556 1.137-1.083 0.582-0.528 1.19-1.026 0.607-0.499 1.238-0.967 0.631-0.468 1.284-0.904 0.653-0.437 1.327-0.84 0.674-0.404 1.367-0.775 0.692-0.37 1.403-0.706 0.71-0.336 1.435-0.636 0.726-0.3 1.466-0.565 0.739-0.265 1.491-0.493 0.752-0.228 1.514-0.42 0.762-0.19 1.532-0.343 0.771-0.153 1.548-0.269 0.777-0.115 1.559-0.192 0.782-0.077 1.566-0.116 0.785-0.038 1.57-0.038 0.786 0 1.571 0.038 0.784 0.039 1.566 0.116 0.782 0.077 1.559 0.192 0.777 0.116 1.547 0.269 0.771 0.153 1.533 0.344 0.762 0.19 1.513 0.419 0.752 0.228 1.492 0.493 0.739 0.264 1.465 0.565 0.726 0.3 1.436 0.636t1.403 0.706q0.693 0.37 1.367 0.775 0.673 0.403 1.327 0.84 0.653 0.436 1.284 0.904t1.238 0.967q0.607 0.498 1.189 1.026 0.582 0.527 1.138 1.083 0.555 0.555 1.083 1.137 0.527 0.582 1.026 1.19 0.498 0.607 0.966 1.238 0.468 0.63 0.904 1.284 0.437 0.653 0.841 1.327 0.404 0.673 0.774 1.366 0.37 0.693 0.706 1.403 0.336 0.71 0.636 1.436 0.301 0.726 0.566 1.465 0.264 0.74 0.492 1.492 0.228 0.752 0.419 1.514 0.191 0.762 0.344 1.532 0.154 0.77 0.269 1.548 0.115 0.777 0.192 1.558 0.077 0.782 0.116 1.567 0.038 0.784 0.038 1.57z m-341.333 0q0 0.785-0.038 1.57-0.04 0.785-0.116 1.566-0.077 0.782-0.192 1.56-0.116 0.776-0.269 1.547-0.153 0.77-0.344 1.532-0.19 0.762-0.419 1.514-0.228 0.752-0.493 1.491-0.264 0.74-0.565 1.466-0.3 0.726-0.636 1.436t-0.707 1.403q-0.37 0.692-0.774 1.366-0.404 0.674-0.84 1.327-0.436 0.653-0.904 1.284t-0.967 1.239q-0.498 0.607-1.026 1.189-0.527 0.582-1.083 1.137-0.555 0.556-1.137 1.083-0.582 0.528-1.19 1.026-0.607 0.499-1.238 0.967-0.63 0.468-1.284 0.904-0.653 0.436-1.327 0.84-0.673 0.404-1.366 0.774-0.693 0.37-1.403 0.707-0.71 0.335-1.436 0.636-0.726 0.3-1.466 0.565-0.74 0.265-1.49 0.493-0.753 0.228-1.515 0.419-0.762 0.19-1.532 0.344-0.77 0.153-1.548 0.269-0.777 0.115-1.558 0.192-0.782 0.077-1.567 0.115-0.784 0.039-1.57 0.039t-1.57-0.039q-0.785-0.038-1.567-0.115-0.781-0.077-1.558-0.192-0.777-0.116-1.548-0.269-0.77-0.153-1.532-0.344-0.762-0.191-1.514-0.419-0.752-0.228-1.492-0.493-0.74-0.264-1.465-0.565-0.726-0.3-1.436-0.636t-1.403-0.707q-0.692-0.37-1.366-0.774-0.674-0.404-1.327-0.84-0.653-0.436-1.284-0.904t-1.239-0.967q-0.607-0.498-1.189-1.026-0.582-0.527-1.137-1.083-0.556-0.555-1.083-1.137-0.528-0.582-1.026-1.19-0.499-0.607-0.967-1.238-0.468-0.63-0.904-1.284-0.436-0.653-0.84-1.327-0.404-0.674-0.774-1.366-0.37-0.693-0.707-1.403-0.336-0.71-0.636-1.436t-0.565-1.466q-0.265-0.74-0.493-1.491-0.228-0.752-0.419-1.514-0.19-0.762-0.344-1.532-0.153-0.77-0.269-1.548-0.115-0.777-0.192-1.559-0.077-0.781-0.115-1.566-0.039-0.785-0.039-1.57 0-0.786 0.038-1.57 0.04-0.785 0.116-1.567 0.077-0.781 0.192-1.558 0.116-0.777 0.269-1.548 0.153-0.77 0.344-1.532 0.19-0.762 0.419-1.514 0.228-0.752 0.493-1.492 0.264-0.74 0.565-1.465 0.3-0.726 0.636-1.436t0.707-1.403q0.37-0.693 0.774-1.366 0.404-0.674 0.84-1.327 0.436-0.653 0.904-1.284t0.967-1.239q0.498-0.607 1.026-1.189 0.527-0.582 1.083-1.137 0.555-0.556 1.137-1.083 0.582-0.528 1.19-1.026 0.607-0.499 1.238-0.967 0.63-0.468 1.284-0.904 0.653-0.437 1.327-0.84 0.674-0.404 1.366-0.775 0.693-0.37 1.403-0.706 0.71-0.336 1.436-0.636t1.465-0.565q0.74-0.265 1.492-0.493 0.752-0.228 1.514-0.42 0.762-0.19 1.532-0.343 0.77-0.153 1.548-0.269 0.777-0.115 1.558-0.192 0.782-0.077 1.567-0.116 0.784-0.038 1.57-0.038t1.57 0.038q0.785 0.039 1.567 0.116 0.781 0.077 1.558 0.192 0.777 0.116 1.548 0.269 0.77 0.153 1.532 0.344 0.762 0.19 1.514 0.419 0.752 0.228 1.491 0.493 0.74 0.264 1.466 0.565 0.726 0.3 1.436 0.636t1.403 0.706q0.692 0.37 1.366 0.775 0.674 0.403 1.327 0.84 0.653 0.436 1.284 0.904t1.239 0.967q0.607 0.498 1.189 1.026 0.582 0.527 1.137 1.083 0.556 0.555 1.083 1.137 0.528 0.582 1.026 1.19 0.499 0.607 0.967 1.238 0.468 0.63 0.904 1.284 0.437 0.653 0.84 1.327 0.404 0.673 0.774 1.366 0.37 0.693 0.707 1.403 0.336 0.71 0.636 1.436t0.565 1.465q0.265 0.74 0.493 1.492 0.228 0.752 0.419 1.514 0.19 0.762 0.344 1.532 0.153 0.77 0.269 1.548 0.115 0.777 0.192 1.558 0.077 0.782 0.115 1.567 0.039 0.784 0.039 1.57zM853.333 245.336H512q-0.786 0-1.57-0.039-0.785-0.038-1.567-0.115-0.781-0.077-1.558-0.192-0.777-0.116-1.548-0.269-0.77-0.153-1.532-0.344-0.762-0.191-1.514-0.419-0.752-0.228-1.492-0.493-0.74-0.264-1.465-0.565-0.726-0.3-1.436-0.636t-1.403-0.707q-0.692-0.37-1.366-0.774-0.674-0.404-1.327-0.84-0.653-0.436-1.284-0.904t-1.239-0.967q-0.607-0.498-1.189-1.026-0.582-0.527-1.137-1.083-0.556-0.555-1.083-1.137-0.528-0.582-1.026-1.19-0.499-0.607-0.967-1.238-0.468-0.63-0.904-1.284-0.436-0.653-0.84-1.327-0.404-0.674-0.774-1.366-0.37-0.693-0.707-1.403-0.336-0.71-0.636-1.436t-0.565-1.466q-0.265-0.74-0.493-1.491-0.228-0.752-0.419-1.514-0.19-0.762-0.344-1.532-0.153-0.77-0.269-1.548-0.115-0.777-0.192-1.559-0.077-0.781-0.115-1.566-0.039-0.785-0.039-1.57 0-0.786 0.038-1.57 0.04-0.785 0.116-1.567 0.077-0.781 0.192-1.558 0.116-0.777 0.269-1.548 0.153-0.77 0.344-1.532 0.19-0.762 0.419-1.514 0.228-0.752 0.493-1.492 0.264-0.74 0.565-1.465 0.3-0.726 0.636-1.436t0.707-1.403q0.37-0.693 0.774-1.366 0.404-0.674 0.84-1.327 0.436-0.653 0.904-1.284t0.967-1.239q0.498-0.607 1.026-1.189 0.527-0.582 1.083-1.137 0.555-0.556 1.137-1.083 0.582-0.528 1.19-1.026 0.607-0.499 1.238-0.967 0.63-0.468 1.284-0.904 0.653-0.437 1.327-0.84 0.674-0.404 1.366-0.775 0.693-0.37 1.403-0.706 0.71-0.336 1.436-0.636t1.465-0.565q0.74-0.265 1.492-0.493 0.752-0.228 1.514-0.42 0.762-0.19 1.532-0.343 0.77-0.153 1.548-0.269 0.777-0.115 1.558-0.192 0.782-0.077 1.567-0.116 0.784-0.038 1.57-0.038h341.333q0.786 0 1.571 0.038 0.784 0.039 1.566 0.116 0.782 0.077 1.559 0.192 0.777 0.116 1.547 0.269 0.771 0.153 1.533 0.344 0.762 0.19 1.513 0.419 0.752 0.228 1.492 0.493 0.739 0.264 1.465 0.565 0.726 0.3 1.436 0.636t1.403 0.706q0.693 0.37 1.367 0.775 0.673 0.403 1.327 0.84 0.653 0.436 1.284 0.904t1.238 0.967q0.607 0.498 1.189 1.026 0.582 0.527 1.138 1.083 0.555 0.555 1.083 1.137 0.527 0.582 1.026 1.19 0.498 0.607 0.966 1.238 0.468 0.63 0.904 1.284 0.437 0.653 0.841 1.327 0.404 0.673 0.774 1.366 0.37 0.693 0.706 1.403 0.336 0.71 0.636 1.436 0.301 0.726 0.566 1.465 0.264 0.74 0.492 1.492 0.228 0.752 0.419 1.514 0.191 0.762 0.344 1.532 0.154 0.77 0.269 1.548 0.115 0.777 0.192 1.558 0.077 0.782 0.116 1.567 0.038 0.784 0.038 1.57 0 0.785-0.038 1.57-0.039 0.785-0.116 1.566-0.077 0.782-0.192 1.56-0.115 0.776-0.269 1.547-0.153 0.77-0.344 1.532-0.191 0.762-0.419 1.514-0.228 0.752-0.492 1.491-0.265 0.74-0.566 1.466-0.3 0.726-0.636 1.436t-0.706 1.403q-0.37 0.692-0.774 1.366-0.404 0.674-0.841 1.327-0.436 0.653-0.904 1.284t-0.966 1.239q-0.499 0.607-1.026 1.189-0.528 0.582-1.083 1.137-0.556 0.556-1.138 1.083-0.582 0.528-1.189 1.026-0.607 0.499-1.238 0.967-0.631 0.468-1.284 0.904-0.654 0.436-1.327 0.84-0.674 0.404-1.367 0.774t-1.403 0.707q-0.71 0.335-1.436 0.636-0.726 0.3-1.465 0.565-0.74 0.265-1.492 0.493-0.751 0.228-1.513 0.419-0.762 0.19-1.533 0.344-0.77 0.153-1.547 0.269-0.777 0.115-1.559 0.192-0.782 0.077-1.566 0.115-0.785 0.039-1.571 0.039z m32-32q0 0.785-0.038 1.57-0.039 0.785-0.116 1.566-0.077 0.782-0.192 1.56-0.115 0.776-0.269 1.547-0.153 0.77-0.344 1.532-0.191 0.762-0.419 1.514-0.228 0.752-0.492 1.491-0.265 0.74-0.566 1.466-0.3 0.726-0.636 1.436t-0.706 1.403q-0.37 0.692-0.774 1.366-0.404 0.674-0.841 1.327-0.436 0.653-0.904 1.284t-0.966 1.239q-0.499 0.607-1.026 1.189-0.528 0.582-1.083 1.137-0.556 0.556-1.138 1.083-0.582 0.528-1.189 1.026-0.607 0.499-1.238 0.967-0.631 0.468-1.284 0.904-0.654 0.436-1.327 0.84-0.674 0.404-1.367 0.774t-1.403 0.707q-0.71 0.335-1.436 0.636-0.726 0.3-1.465 0.565-0.74 0.265-1.492 0.493-0.751 0.228-1.513 0.419-0.762 0.19-1.533 0.344-0.77 0.153-1.547 0.269-0.777 0.115-1.559 0.192-0.782 0.077-1.566 0.115-0.785 0.039-1.571 0.039-0.785 0-1.57-0.039-0.784-0.038-1.566-0.115-0.782-0.077-1.559-0.192-0.777-0.116-1.548-0.269-0.77-0.153-1.532-0.344-0.762-0.191-1.514-0.419-0.752-0.228-1.491-0.493-0.74-0.264-1.466-0.565-0.725-0.3-1.435-0.636-0.711-0.336-1.403-0.707-0.693-0.37-1.367-0.774t-1.327-0.84q-0.653-0.436-1.284-0.904t-1.238-0.967q-0.608-0.498-1.19-1.026-0.582-0.527-1.137-1.083-0.556-0.555-1.083-1.137-0.528-0.582-1.026-1.19-0.498-0.607-0.966-1.238-0.468-0.63-0.905-1.284-0.436-0.653-0.84-1.327-0.404-0.674-0.774-1.366-0.37-0.693-0.706-1.403-0.336-0.71-0.637-1.436-0.3-0.726-0.565-1.466-0.265-0.74-0.493-1.491-0.228-0.752-0.419-1.514-0.191-0.762-0.344-1.532-0.153-0.77-0.268-1.548-0.116-0.777-0.193-1.559-0.077-0.781-0.115-1.566-0.039-0.785-0.039-1.57 0-0.786 0.039-1.57 0.038-0.785 0.115-1.567 0.077-0.781 0.193-1.558 0.115-0.777 0.268-1.548 0.153-0.77 0.344-1.532 0.191-0.762 0.419-1.514 0.228-0.752 0.493-1.492t0.565-1.465q0.301-0.726 0.637-1.436t0.706-1.403q0.37-0.693 0.774-1.366 0.404-0.674 0.84-1.327 0.437-0.653 0.905-1.284t0.966-1.239q0.498-0.607 1.026-1.189 0.527-0.582 1.083-1.137 0.555-0.556 1.137-1.083 0.582-0.528 1.19-1.026 0.607-0.499 1.238-0.967 0.631-0.468 1.284-0.904 0.653-0.437 1.327-0.84 0.674-0.404 1.367-0.775 0.692-0.37 1.403-0.706 0.71-0.336 1.435-0.636 0.726-0.3 1.466-0.565 0.739-0.265 1.491-0.493 0.752-0.228 1.514-0.42 0.762-0.19 1.532-0.343 0.771-0.153 1.548-0.269 0.777-0.115 1.559-0.192 0.782-0.077 1.566-0.116 0.785-0.038 1.57-0.038 0.786 0 1.571 0.038 0.784 0.039 1.566 0.116 0.782 0.077 1.559 0.192 0.777 0.116 1.547 0.269 0.771 0.153 1.533 0.344 0.762 0.19 1.513 0.419 0.752 0.228 1.492 0.493 0.739 0.264 1.465 0.565 0.726 0.3 1.436 0.636t1.403 0.706q0.693 0.37 1.367 0.775 0.673 0.403 1.327 0.84 0.653 0.436 1.284 0.904t1.238 0.967q0.607 0.498 1.189 1.026 0.582 0.527 1.138 1.083 0.555 0.555 1.083 1.137 0.527 0.582 1.026 1.19 0.498 0.607 0.966 1.238 0.468 0.63 0.904 1.284 0.437 0.653 0.841 1.327 0.404 0.673 0.774 1.366 0.37 0.693 0.706 1.403 0.336 0.71 0.636 1.436 0.301 0.726 0.566 1.465 0.264 0.74 0.492 1.492 0.228 0.752 0.419 1.514 0.191 0.762 0.344 1.532 0.154 0.77 0.269 1.548 0.115 0.777 0.192 1.558 0.077 0.782 0.116 1.567 0.038 0.784 0.038 1.57z m-341.333 0q0 0.785-0.038 1.57-0.04 0.785-0.116 1.566-0.077 0.782-0.192 1.56-0.116 0.776-0.269 1.547-0.153 0.77-0.344 1.532-0.19 0.762-0.419 1.514-0.228 0.752-0.493 1.491-0.264 0.74-0.565 1.466-0.3 0.726-0.636 1.436t-0.707 1.403q-0.37 0.692-0.774 1.366-0.404 0.674-0.84 1.327-0.436 0.653-0.904 1.284t-0.967 1.239q-0.498 0.607-1.026 1.189-0.527 0.582-1.083 1.137-0.555 0.556-1.137 1.083-0.582 0.528-1.19 1.026-0.607 0.499-1.238 0.967-0.63 0.468-1.284 0.904-0.653 0.436-1.327 0.84-0.673 0.404-1.366 0.774-0.693 0.37-1.403 0.707-0.71 0.335-1.436 0.636-0.726 0.3-1.466 0.565-0.74 0.265-1.49 0.493-0.753 0.228-1.515 0.419-0.762 0.19-1.532 0.344-0.77 0.153-1.548 0.269-0.777 0.115-1.558 0.192-0.782 0.077-1.567 0.115-0.784 0.039-1.57 0.039t-1.57-0.039q-0.785-0.038-1.567-0.115-0.781-0.077-1.558-0.192-0.777-0.116-1.548-0.269-0.77-0.153-1.532-0.344-0.762-0.191-1.514-0.419-0.752-0.228-1.492-0.493-0.74-0.264-1.465-0.565-0.726-0.3-1.436-0.636t-1.403-0.707q-0.692-0.37-1.366-0.774-0.674-0.404-1.327-0.84-0.653-0.436-1.284-0.904t-1.239-0.967q-0.607-0.498-1.189-1.026-0.582-0.527-1.137-1.083-0.556-0.555-1.083-1.137-0.528-0.582-1.026-1.19-0.499-0.607-0.967-1.238-0.468-0.63-0.904-1.284-0.436-0.653-0.84-1.327-0.404-0.674-0.774-1.366-0.37-0.693-0.707-1.403-0.336-0.71-0.636-1.436t-0.565-1.466q-0.265-0.74-0.493-1.491-0.228-0.752-0.419-1.514-0.19-0.762-0.344-1.532-0.153-0.77-0.269-1.548-0.115-0.777-0.192-1.559-0.077-0.781-0.115-1.566-0.039-0.785-0.039-1.57 0-0.786 0.038-1.57 0.04-0.785 0.116-1.567 0.077-0.781 0.192-1.558 0.116-0.777 0.269-1.548 0.153-0.77 0.344-1.532 0.19-0.762 0.419-1.514 0.228-0.752 0.493-1.492 0.264-0.74 0.565-1.465 0.3-0.726 0.636-1.436t0.707-1.403q0.37-0.693 0.774-1.366 0.404-0.674 0.84-1.327 0.436-0.653 0.904-1.284t0.967-1.239q0.498-0.607 1.026-1.189 0.527-0.582 1.083-1.137 0.555-0.556 1.137-1.083 0.582-0.528 1.19-1.026 0.607-0.499 1.238-0.967 0.63-0.468 1.284-0.904 0.653-0.437 1.327-0.84 0.674-0.404 1.366-0.775 0.693-0.37 1.403-0.706 0.71-0.336 1.436-0.636t1.465-0.565q0.74-0.265 1.492-0.493 0.752-0.228 1.514-0.42 0.762-0.19 1.532-0.343 0.77-0.153 1.548-0.269 0.777-0.115 1.558-0.192 0.782-0.077 1.567-0.116 0.784-0.038 1.57-0.038t1.57 0.038q0.785 0.039 1.567 0.116 0.781 0.077 1.558 0.192 0.777 0.116 1.548 0.269 0.77 0.153 1.532 0.344 0.762 0.19 1.514 0.419 0.752 0.228 1.491 0.493 0.74 0.264 1.466 0.565 0.726 0.3 1.436 0.636t1.403 0.706q0.692 0.37 1.366 0.775 0.674 0.403 1.327 0.84 0.653 0.436 1.284 0.904t1.239 0.967q0.607 0.498 1.189 1.026 0.582 0.527 1.137 1.083 0.556 0.555 1.083 1.137 0.528 0.582 1.026 1.19 0.499 0.607 0.967 1.238 0.468 0.63 0.904 1.284 0.437 0.653 0.84 1.327 0.404 0.673 0.774 1.366 0.37 0.693 0.707 1.403 0.336 0.71 0.636 1.436t0.565 1.465q0.265 0.74 0.493 1.492 0.228 0.752 0.419 1.514 0.19 0.762 0.344 1.532 0.153 0.77 0.269 1.548 0.115 0.777 0.192 1.558 0.077 0.782 0.115 1.567 0.039 0.784 0.039 1.57zM853.355 842.664H170.687q-0.785 0-1.57-0.038-0.784-0.039-1.566-0.116-0.782-0.077-1.559-0.192-0.777-0.116-1.547-0.269-0.77-0.153-1.533-0.344-0.762-0.19-1.514-0.419-0.751-0.228-1.491-0.493-0.74-0.264-1.465-0.565-0.726-0.3-1.436-0.636t-1.403-0.706q-0.693-0.37-1.367-0.775-0.674-0.403-1.327-0.84-0.653-0.436-1.284-0.904-0.63-0.468-1.238-0.967-0.607-0.498-1.19-1.026-0.581-0.527-1.137-1.083-0.555-0.555-1.083-1.137-0.528-0.582-1.026-1.19-0.498-0.607-0.966-1.238-0.468-0.63-0.905-1.284-0.436-0.653-0.84-1.327-0.404-0.673-0.774-1.366-0.37-0.693-0.706-1.403-0.336-0.71-0.637-1.436-0.3-0.726-0.565-1.465-0.265-0.74-0.493-1.492-0.228-0.752-0.418-1.514-0.191-0.762-0.345-1.532-0.153-0.77-0.268-1.548-0.115-0.777-0.192-1.558-0.077-0.782-0.116-1.567-0.038-0.784-0.038-1.57 0-0.785 0.038-1.57 0.039-0.785 0.116-1.566 0.077-0.782 0.192-1.56 0.115-0.776 0.268-1.547 0.154-0.77 0.345-1.532 0.19-0.762 0.418-1.514 0.228-0.752 0.493-1.491 0.265-0.74 0.565-1.466 0.301-0.726 0.637-1.436t0.706-1.403q0.37-0.692 0.774-1.366 0.404-0.674 0.84-1.327 0.437-0.653 0.905-1.284t0.966-1.239q0.499-0.607 1.026-1.189 0.528-0.582 1.083-1.137 0.556-0.556 1.138-1.083 0.582-0.528 1.189-1.026 0.607-0.499 1.238-0.967 0.631-0.468 1.284-0.904t1.327-0.84q0.674-0.404 1.367-0.774t1.403-0.707q0.71-0.335 1.436-0.636 0.725-0.3 1.465-0.565 0.74-0.265 1.491-0.493 0.752-0.228 1.514-0.419 0.762-0.19 1.533-0.344 0.77-0.153 1.547-0.269 0.777-0.115 1.559-0.192 0.782-0.077 1.566-0.115 0.785-0.039 1.57-0.039h682.668q0.784 0 1.57 0.039 0.784 0.038 1.566 0.115 0.782 0.077 1.558 0.192 0.778 0.116 1.548 0.269 0.77 0.153 1.533 0.344 0.761 0.191 1.514 0.419 0.75 0.228 1.49 0.493 0.74 0.264 1.466 0.565 0.726 0.3 1.435 0.636 0.71 0.336 1.404 0.707 0.692 0.37 1.367 0.774 0.673 0.404 1.327 0.84 0.652 0.436 1.284 0.904 0.63 0.468 1.237 0.967 0.607 0.498 1.19 1.026 0.582 0.527 1.137 1.083 0.557 0.555 1.083 1.137 0.529 0.582 1.027 1.19 0.497 0.607 0.966 1.238 0.467 0.63 0.904 1.284 0.437 0.653 0.84 1.327 0.404 0.674 0.774 1.366 0.37 0.693 0.707 1.403 0.335 0.71 0.636 1.436 0.3 0.726 0.566 1.466 0.264 0.74 0.492 1.491 0.229 0.752 0.42 1.514 0.19 0.762 0.344 1.532 0.153 0.77 0.268 1.548 0.115 0.777 0.192 1.559 0.077 0.781 0.115 1.566 0.04 0.785 0.04 1.57 0 0.786-0.04 1.57-0.038 0.785-0.115 1.567-0.077 0.781-0.192 1.558t-0.269 1.548q-0.154 0.77-0.344 1.532-0.19 0.762-0.418 1.514-0.228 0.752-0.493 1.492-0.266 0.74-0.566 1.465-0.3 0.726-0.636 1.436-0.337 0.71-0.707 1.403-0.37 0.693-0.774 1.366-0.404 0.674-0.84 1.327-0.437 0.653-0.904 1.284-0.469 0.631-0.966 1.239-0.499 0.607-1.027 1.189-0.526 0.582-1.082 1.137-0.555 0.556-1.137 1.083-0.584 0.528-1.19 1.026-0.607 0.499-1.238 0.967-0.632 0.468-1.284 0.904-0.654 0.437-1.327 0.84-0.675 0.404-1.368 0.775-0.692 0.37-1.403 0.706-0.71 0.336-1.435 0.636-0.726 0.3-1.466 0.565-0.74 0.265-1.49 0.493-0.753 0.228-1.514 0.42-0.763 0.19-1.533 0.343-0.77 0.153-1.548 0.269-0.776 0.115-1.558 0.192-0.783 0.077-1.567 0.116-0.784 0.038-1.57 0.038z m32-32q0 0.786-0.04 1.57-0.038 0.785-0.115 1.567-0.077 0.781-0.192 1.558t-0.269 1.548q-0.154 0.77-0.344 1.532-0.19 0.762-0.418 1.514-0.228 0.752-0.493 1.492-0.266 0.74-0.566 1.465-0.3 0.726-0.636 1.436-0.337 0.71-0.707 1.403-0.37 0.693-0.774 1.366-0.404 0.674-0.84 1.327-0.437 0.653-0.904 1.284-0.469 0.631-0.966 1.239-0.499 0.607-1.027 1.189-0.526 0.582-1.082 1.137-0.555 0.556-1.137 1.083-0.584 0.528-1.19 1.026-0.607 0.499-1.238 0.967-0.632 0.468-1.284 0.904-0.654 0.437-1.327 0.84-0.675 0.404-1.368 0.775-0.692 0.37-1.403 0.706-0.71 0.336-1.435 0.636-0.726 0.3-1.466 0.565-0.74 0.265-1.49 0.493-0.753 0.228-1.514 0.42-0.763 0.19-1.533 0.343-0.77 0.153-1.548 0.269-0.776 0.115-1.558 0.192-0.783 0.077-1.567 0.116-0.784 0.038-1.57 0.038t-1.57-0.038q-0.784-0.039-1.567-0.116-0.781-0.077-1.558-0.192-0.778-0.116-1.548-0.269-0.77-0.153-1.533-0.344-0.761-0.19-1.512-0.419-0.753-0.228-1.493-0.493-0.74-0.264-1.464-0.565-0.726-0.3-1.437-0.636-0.71-0.336-1.403-0.706-0.692-0.37-1.366-0.775-0.673-0.403-1.327-0.84-0.654-0.436-1.284-0.904-0.632-0.468-1.239-0.967-0.606-0.498-1.188-1.026-0.582-0.527-1.139-1.083-0.554-0.555-1.082-1.137t-1.027-1.19q-0.497-0.607-0.965-1.238-0.469-0.63-0.905-1.284-0.436-0.653-0.84-1.327-0.404-0.673-0.774-1.366-0.37-0.693-0.707-1.403-0.336-0.71-0.637-1.436-0.3-0.726-0.564-1.465-0.264-0.74-0.493-1.492-0.227-0.752-0.418-1.514-0.192-0.762-0.346-1.532-0.152-0.77-0.267-1.548-0.115-0.777-0.192-1.558-0.077-0.782-0.116-1.567-0.038-0.784-0.038-1.57 0-0.785 0.038-1.57t0.115-1.566q0.077-0.782 0.192-1.56 0.115-0.776 0.268-1.547 0.154-0.77 0.346-1.532 0.19-0.762 0.418-1.514 0.229-0.752 0.493-1.491 0.264-0.74 0.564-1.466 0.302-0.726 0.638-1.436t0.706-1.403q0.37-0.692 0.774-1.366 0.404-0.674 0.84-1.327 0.437-0.653 0.905-1.284 0.467-0.631 0.965-1.239 0.5-0.607 1.027-1.189 0.528-0.582 1.082-1.137 0.557-0.556 1.139-1.083 0.582-0.528 1.188-1.026 0.607-0.499 1.239-0.967 0.63-0.468 1.284-0.904t1.327-0.84q0.673-0.404 1.366-0.774 0.693-0.37 1.404-0.707 0.71-0.335 1.436-0.636 0.724-0.3 1.464-0.565 0.74-0.265 1.493-0.493 0.75-0.228 1.512-0.419 0.763-0.19 1.534-0.344 0.77-0.153 1.547-0.269 0.777-0.115 1.558-0.192 0.783-0.077 1.567-0.115 0.784-0.039 1.57-0.039 0.785 0 1.57 0.039 0.784 0.038 1.567 0.115 0.782 0.077 1.558 0.192 0.778 0.116 1.548 0.269 0.77 0.153 1.533 0.344 0.761 0.191 1.514 0.419 0.75 0.228 1.49 0.493 0.74 0.264 1.466 0.565 0.726 0.3 1.435 0.636 0.71 0.336 1.404 0.707 0.692 0.37 1.367 0.774 0.673 0.404 1.327 0.84 0.652 0.436 1.284 0.904 0.63 0.468 1.237 0.967 0.607 0.498 1.19 1.026 0.582 0.527 1.137 1.083 0.557 0.555 1.083 1.137 0.529 0.582 1.027 1.19 0.497 0.607 0.966 1.238 0.467 0.63 0.904 1.284 0.437 0.653 0.84 1.327 0.404 0.674 0.774 1.366 0.37 0.693 0.707 1.403 0.335 0.71 0.636 1.436 0.3 0.726 0.566 1.466 0.264 0.74 0.492 1.491 0.229 0.752 0.42 1.514 0.19 0.762 0.344 1.532 0.153 0.77 0.268 1.548 0.115 0.777 0.192 1.559 0.077 0.781 0.115 1.566 0.04 0.785 0.04 1.57z m-682.668 0q0 0.786-0.038 1.57-0.039 0.785-0.116 1.567-0.077 0.781-0.192 1.558t-0.268 1.548q-0.154 0.77-0.345 1.532-0.19 0.762-0.418 1.514-0.228 0.752-0.493 1.492t-0.565 1.465q-0.301 0.726-0.637 1.436t-0.706 1.403q-0.37 0.693-0.774 1.366-0.404 0.674-0.84 1.327-0.437 0.653-0.905 1.284t-0.966 1.239q-0.499 0.607-1.026 1.189-0.528 0.582-1.083 1.137-0.556 0.556-1.138 1.083-0.582 0.528-1.189 1.026-0.607 0.499-1.238 0.967-0.631 0.468-1.284 0.904-0.653 0.437-1.327 0.84-0.674 0.404-1.367 0.775-0.693 0.37-1.403 0.706-0.71 0.336-1.436 0.636-0.725 0.3-1.465 0.565-0.74 0.265-1.491 0.493-0.752 0.228-1.514 0.42-0.762 0.19-1.533 0.343-0.77 0.153-1.547 0.269-0.777 0.115-1.559 0.192-0.782 0.077-1.566 0.116-0.785 0.038-1.57 0.038-0.786 0-1.57-0.038-0.785-0.039-1.567-0.116-0.782-0.077-1.559-0.192-0.777-0.116-1.547-0.269-0.77-0.153-1.533-0.344-0.762-0.19-1.514-0.419-0.751-0.228-1.491-0.493-0.74-0.264-1.465-0.565-0.726-0.3-1.436-0.636t-1.403-0.706q-0.693-0.37-1.367-0.775-0.674-0.403-1.327-0.84-0.653-0.436-1.284-0.904-0.63-0.468-1.238-0.967-0.607-0.498-1.19-1.026-0.581-0.527-1.137-1.083-0.555-0.555-1.083-1.137-0.528-0.582-1.026-1.19-0.498-0.607-0.966-1.238-0.468-0.63-0.905-1.284-0.436-0.653-0.84-1.327-0.404-0.673-0.774-1.366-0.37-0.693-0.706-1.403-0.336-0.71-0.637-1.436-0.3-0.726-0.565-1.465-0.265-0.74-0.493-1.492-0.228-0.752-0.418-1.514-0.191-0.762-0.345-1.532-0.153-0.77-0.268-1.548-0.115-0.777-0.192-1.558-0.077-0.782-0.116-1.567-0.038-0.784-0.038-1.57 0-0.785 0.038-1.57 0.039-0.785 0.116-1.566 0.077-0.782 0.192-1.56 0.115-0.776 0.268-1.547 0.154-0.77 0.345-1.532 0.19-0.762 0.418-1.514 0.228-0.752 0.493-1.491 0.265-0.74 0.565-1.466 0.301-0.726 0.637-1.436t0.706-1.403q0.37-0.692 0.774-1.366 0.404-0.674 0.84-1.327 0.437-0.653 0.905-1.284t0.966-1.239q0.499-0.607 1.026-1.189 0.528-0.582 1.083-1.137 0.556-0.556 1.138-1.083 0.582-0.528 1.189-1.026 0.607-0.499 1.238-0.967 0.631-0.468 1.284-0.904t1.327-0.84q0.674-0.404 1.367-0.774t1.403-0.707q0.71-0.335 1.436-0.636 0.725-0.3 1.465-0.565 0.74-0.265 1.491-0.493 0.752-0.228 1.514-0.419 0.762-0.19 1.533-0.344 0.77-0.153 1.547-0.269 0.777-0.115 1.559-0.192 0.782-0.077 1.566-0.115 0.785-0.039 1.57-0.039 0.786 0 1.57 0.039 0.785 0.038 1.567 0.115 0.782 0.077 1.559 0.192 0.777 0.116 1.547 0.269 0.77 0.153 1.533 0.344 0.762 0.191 1.514 0.419 0.751 0.228 1.491 0.493 0.74 0.264 1.465 0.565 0.726 0.3 1.436 0.636t1.403 0.707q0.693 0.37 1.367 0.774t1.327 0.84q0.653 0.436 1.284 0.904 0.63 0.468 1.238 0.967 0.607 0.498 1.19 1.026 0.581 0.527 1.137 1.083 0.555 0.555 1.083 1.137 0.528 0.582 1.026 1.19 0.498 0.607 0.966 1.238 0.468 0.63 0.905 1.284 0.436 0.653 0.84 1.327 0.404 0.674 0.774 1.366 0.37 0.693 0.706 1.403 0.336 0.71 0.637 1.436 0.3 0.726 0.565 1.466 0.265 0.74 0.493 1.491 0.228 0.752 0.418 1.514 0.191 0.762 0.345 1.532 0.153 0.77 0.268 1.548 0.115 0.777 0.192 1.559 0.077 0.781 0.116 1.566 0.038 0.785 0.038 1.57zM853.355 629.336H170.687q-0.785 0-1.57-0.039-0.784-0.038-1.566-0.115-0.782-0.077-1.559-0.192-0.777-0.116-1.547-0.269-0.77-0.153-1.533-0.344-0.762-0.191-1.514-0.419-0.751-0.228-1.491-0.493-0.74-0.264-1.465-0.565-0.726-0.3-1.436-0.636t-1.403-0.707q-0.693-0.37-1.367-0.774t-1.327-0.84q-0.653-0.436-1.284-0.904-0.63-0.468-1.238-0.967-0.607-0.498-1.19-1.026-0.581-0.527-1.137-1.083-0.555-0.555-1.083-1.137-0.528-0.582-1.026-1.19-0.498-0.607-0.966-1.238-0.468-0.63-0.905-1.284-0.436-0.653-0.84-1.327-0.404-0.674-0.774-1.366-0.37-0.693-0.706-1.403-0.336-0.71-0.637-1.436-0.3-0.726-0.565-1.466-0.265-0.74-0.493-1.491-0.228-0.752-0.418-1.514-0.191-0.762-0.345-1.532-0.153-0.77-0.268-1.548-0.115-0.777-0.192-1.559-0.077-0.781-0.116-1.566-0.038-0.785-0.038-1.57 0-0.786 0.038-1.57 0.039-0.785 0.116-1.567 0.077-0.781 0.192-1.558t0.268-1.548q0.154-0.77 0.345-1.532 0.19-0.762 0.418-1.514 0.228-0.752 0.493-1.492t0.565-1.465q0.301-0.726 0.637-1.436t0.706-1.403q0.37-0.693 0.774-1.366 0.404-0.674 0.84-1.327 0.437-0.653 0.905-1.284t0.966-1.239q0.499-0.607 1.026-1.189 0.528-0.582 1.083-1.137 0.556-0.556 1.138-1.083 0.582-0.528 1.189-1.026 0.607-0.499 1.238-0.967 0.631-0.468 1.284-0.904 0.653-0.437 1.327-0.84 0.674-0.404 1.367-0.775 0.693-0.37 1.403-0.706 0.71-0.336 1.436-0.636 0.725-0.3 1.465-0.565 0.74-0.265 1.491-0.493 0.752-0.228 1.514-0.42 0.762-0.19 1.533-0.343 0.77-0.153 1.547-0.269 0.777-0.115 1.559-0.192 0.782-0.077 1.566-0.116 0.785-0.038 1.57-0.038h682.668q0.784 0 1.57 0.038 0.784 0.039 1.566 0.116 0.782 0.077 1.558 0.192 0.778 0.116 1.548 0.269 0.77 0.153 1.533 0.344 0.761 0.19 1.514 0.419 0.75 0.228 1.49 0.493 0.74 0.264 1.466 0.565 0.726 0.3 1.435 0.636 0.71 0.336 1.404 0.706 0.692 0.37 1.367 0.775 0.673 0.403 1.327 0.84 0.652 0.436 1.284 0.904 0.63 0.468 1.237 0.967 0.607 0.498 1.19 1.026 0.582 0.527 1.137 1.083 0.557 0.555 1.083 1.137 0.529 0.582 1.027 1.19 0.497 0.607 0.966 1.238 0.467 0.63 0.904 1.284 0.437 0.653 0.84 1.327 0.404 0.673 0.774 1.366 0.37 0.693 0.707 1.403 0.335 0.71 0.636 1.436 0.3 0.726 0.566 1.465 0.264 0.74 0.492 1.492 0.229 0.752 0.42 1.514 0.19 0.762 0.344 1.532 0.153 0.77 0.268 1.548 0.115 0.777 0.192 1.558 0.077 0.782 0.115 1.567 0.04 0.784 0.04 1.57 0 0.785-0.04 1.57-0.038 0.785-0.115 1.566-0.077 0.782-0.192 1.56-0.115 0.776-0.269 1.547-0.154 0.77-0.344 1.532-0.19 0.762-0.418 1.514-0.228 0.752-0.493 1.491-0.266 0.74-0.566 1.466-0.3 0.726-0.636 1.436-0.337 0.71-0.707 1.403-0.37 0.692-0.774 1.366-0.404 0.674-0.84 1.327-0.437 0.653-0.904 1.284-0.469 0.631-0.966 1.239-0.499 0.607-1.027 1.189-0.526 0.582-1.082 1.137-0.555 0.556-1.137 1.083-0.584 0.528-1.19 1.026-0.607 0.499-1.238 0.967-0.632 0.468-1.284 0.904-0.654 0.436-1.327 0.84-0.675 0.404-1.368 0.774-0.692 0.37-1.403 0.707-0.71 0.335-1.435 0.636-0.726 0.3-1.466 0.565-0.74 0.265-1.49 0.493-0.753 0.228-1.514 0.419-0.763 0.19-1.533 0.344-0.77 0.153-1.548 0.269-0.776 0.115-1.558 0.192-0.783 0.077-1.567 0.115-0.784 0.039-1.57 0.039z m32-32q0 0.785-0.04 1.57-0.038 0.785-0.115 1.566-0.077 0.782-0.192 1.56-0.115 0.776-0.269 1.547-0.154 0.77-0.344 1.532-0.19 0.762-0.418 1.514-0.228 0.752-0.493 1.491-0.266 0.74-0.566 1.466-0.3 0.726-0.636 1.436-0.337 0.71-0.707 1.403-0.37 0.692-0.774 1.366-0.404 0.674-0.84 1.327-0.437 0.653-0.904 1.284-0.469 0.631-0.966 1.239-0.499 0.607-1.027 1.189-0.526 0.582-1.082 1.137-0.555 0.556-1.137 1.083-0.584 0.528-1.19 1.026-0.607 0.499-1.238 0.967-0.632 0.468-1.284 0.904-0.654 0.436-1.327 0.84-0.675 0.404-1.368 0.774-0.692 0.37-1.403 0.707-0.71 0.335-1.435 0.636-0.726 0.3-1.466 0.565-0.74 0.265-1.49 0.493-0.753 0.228-1.514 0.419-0.763 0.19-1.533 0.344-0.77 0.153-1.548 0.269-0.776 0.115-1.558 0.192-0.783 0.077-1.567 0.115-0.784 0.039-1.57 0.039t-1.57-0.039q-0.784-0.038-1.567-0.115-0.781-0.077-1.558-0.192-0.778-0.116-1.548-0.269-0.77-0.153-1.533-0.344-0.761-0.191-1.512-0.419-0.753-0.228-1.493-0.493-0.74-0.264-1.464-0.565-0.726-0.3-1.437-0.636-0.71-0.336-1.403-0.707-0.692-0.37-1.366-0.774-0.673-0.404-1.327-0.84-0.654-0.436-1.284-0.904-0.632-0.468-1.239-0.967-0.606-0.498-1.188-1.026-0.582-0.527-1.139-1.083-0.554-0.555-1.082-1.137t-1.027-1.19q-0.497-0.607-0.965-1.238-0.469-0.63-0.905-1.284-0.436-0.653-0.84-1.327-0.404-0.674-0.774-1.366-0.37-0.693-0.707-1.403-0.336-0.71-0.637-1.436-0.3-0.726-0.564-1.466-0.264-0.74-0.493-1.491-0.227-0.752-0.418-1.514-0.192-0.762-0.346-1.532-0.152-0.77-0.267-1.548-0.115-0.777-0.192-1.559-0.077-0.781-0.116-1.566-0.038-0.785-0.038-1.57 0-0.786 0.038-1.57 0.038-0.785 0.115-1.567 0.077-0.781 0.192-1.558t0.268-1.548q0.154-0.77 0.346-1.532 0.19-0.762 0.418-1.514 0.229-0.752 0.493-1.492t0.564-1.465q0.302-0.726 0.638-1.436t0.706-1.403q0.37-0.693 0.774-1.366 0.404-0.674 0.84-1.327 0.437-0.653 0.905-1.284 0.467-0.631 0.965-1.239 0.5-0.607 1.027-1.189 0.528-0.582 1.082-1.137 0.557-0.556 1.139-1.083 0.582-0.528 1.188-1.026 0.607-0.499 1.239-0.967 0.63-0.468 1.284-0.904 0.654-0.437 1.327-0.84 0.673-0.404 1.366-0.775 0.693-0.37 1.404-0.706 0.71-0.336 1.436-0.636 0.724-0.3 1.464-0.565 0.74-0.265 1.493-0.493 0.75-0.228 1.512-0.42 0.763-0.19 1.534-0.343 0.77-0.153 1.547-0.269 0.777-0.115 1.558-0.192 0.783-0.077 1.567-0.116 0.784-0.038 1.57-0.038 0.785 0 1.57 0.038 0.784 0.039 1.567 0.116 0.782 0.077 1.558 0.192 0.778 0.116 1.548 0.269 0.77 0.153 1.533 0.344 0.761 0.19 1.514 0.419 0.75 0.228 1.49 0.493 0.74 0.264 1.466 0.565 0.726 0.3 1.435 0.636 0.71 0.336 1.404 0.706 0.692 0.37 1.367 0.775 0.673 0.403 1.327 0.84 0.652 0.436 1.284 0.904 0.63 0.468 1.237 0.967 0.607 0.498 1.19 1.026 0.582 0.527 1.137 1.083 0.557 0.555 1.083 1.137 0.529 0.582 1.027 1.19 0.497 0.607 0.966 1.238 0.467 0.63 0.904 1.284 0.437 0.653 0.84 1.327 0.404 0.673 0.774 1.366 0.37 0.693 0.707 1.403 0.335 0.71 0.636 1.436 0.3 0.726 0.566 1.465 0.264 0.74 0.492 1.492 0.229 0.752 0.42 1.514 0.19 0.762 0.344 1.532 0.153 0.77 0.268 1.548 0.115 0.777 0.192 1.558 0.077 0.782 0.115 1.567 0.04 0.784 0.04 1.57z m-682.668 0q0 0.785-0.038 1.57-0.039 0.785-0.116 1.566-0.077 0.782-0.192 1.56-0.115 0.776-0.268 1.547-0.154 0.77-0.345 1.532-0.19 0.762-0.418 1.514-0.228 0.752-0.493 1.491-0.265 0.74-0.565 1.466-0.301 0.726-0.637 1.436t-0.706 1.403q-0.37 0.692-0.774 1.366-0.404 0.674-0.84 1.327-0.437 0.653-0.905 1.284t-0.966 1.239q-0.499 0.607-1.026 1.189-0.528 0.582-1.083 1.137-0.556 0.556-1.138 1.083-0.582 0.528-1.189 1.026-0.607 0.499-1.238 0.967-0.631 0.468-1.284 0.904t-1.327 0.84q-0.674 0.404-1.367 0.774t-1.403 0.707q-0.71 0.335-1.436 0.636-0.725 0.3-1.465 0.565-0.74 0.265-1.491 0.493-0.752 0.228-1.514 0.419-0.762 0.19-1.533 0.344-0.77 0.153-1.547 0.269-0.777 0.115-1.559 0.192-0.782 0.077-1.566 0.115-0.785 0.039-1.57 0.039-0.786 0-1.57-0.039-0.785-0.038-1.567-0.115-0.782-0.077-1.559-0.192-0.777-0.116-1.547-0.269-0.77-0.153-1.533-0.344-0.762-0.191-1.514-0.419-0.751-0.228-1.491-0.493-0.74-0.264-1.465-0.565-0.726-0.3-1.436-0.636t-1.403-0.707q-0.693-0.37-1.367-0.774t-1.327-0.84q-0.653-0.436-1.284-0.904-0.63-0.468-1.238-0.967-0.607-0.498-1.19-1.026-0.581-0.527-1.137-1.083-0.555-0.555-1.083-1.137-0.528-0.582-1.026-1.19-0.498-0.607-0.966-1.238-0.468-0.63-0.905-1.284-0.436-0.653-0.84-1.327-0.404-0.674-0.774-1.366-0.37-0.693-0.706-1.403-0.336-0.71-0.637-1.436-0.3-0.726-0.565-1.466-0.265-0.74-0.493-1.491-0.228-0.752-0.418-1.514-0.191-0.762-0.345-1.532-0.153-0.77-0.268-1.548-0.115-0.777-0.192-1.559-0.077-0.781-0.116-1.566-0.038-0.785-0.038-1.57 0-0.786 0.038-1.57 0.039-0.785 0.116-1.567 0.077-0.781 0.192-1.558t0.268-1.548q0.154-0.77 0.345-1.532 0.19-0.762 0.418-1.514 0.228-0.752 0.493-1.492t0.565-1.465q0.301-0.726 0.637-1.436t0.706-1.403q0.37-0.693 0.774-1.366 0.404-0.674 0.84-1.327 0.437-0.653 0.905-1.284t0.966-1.239q0.499-0.607 1.026-1.189 0.528-0.582 1.083-1.137 0.556-0.556 1.138-1.083 0.582-0.528 1.189-1.026 0.607-0.499 1.238-0.967 0.631-0.468 1.284-0.904 0.653-0.437 1.327-0.84 0.674-0.404 1.367-0.775 0.693-0.37 1.403-0.706 0.71-0.336 1.436-0.636 0.725-0.3 1.465-0.565 0.74-0.265 1.491-0.493 0.752-0.228 1.514-0.42 0.762-0.19 1.533-0.343 0.77-0.153 1.547-0.269 0.777-0.115 1.559-0.192 0.782-0.077 1.566-0.116 0.785-0.038 1.57-0.038 0.786 0 1.57 0.038 0.785 0.039 1.567 0.116 0.782 0.077 1.559 0.192 0.777 0.116 1.547 0.269 0.77 0.153 1.533 0.344 0.762 0.19 1.514 0.419 0.751 0.228 1.491 0.493 0.74 0.264 1.465 0.565 0.726 0.3 1.436 0.636t1.403 0.706q0.693 0.37 1.367 0.775 0.674 0.403 1.327 0.84 0.653 0.436 1.284 0.904 0.63 0.468 1.238 0.967 0.607 0.498 1.19 1.026 0.581 0.527 1.137 1.083 0.555 0.555 1.083 1.137 0.528 0.582 1.026 1.19 0.498 0.607 0.966 1.238 0.468 0.63 0.905 1.284 0.436 0.653 0.84 1.327 0.404 0.673 0.774 1.366 0.37 0.693 0.706 1.403 0.336 0.71 0.637 1.436 0.3 0.726 0.565 1.465 0.265 0.74 0.493 1.492 0.228 0.752 0.418 1.514 0.191 0.762 0.345 1.532 0.153 0.77 0.268 1.548 0.115 0.777 0.192 1.558 0.077 0.782 0.116 1.567 0.038 0.784 0.038 1.57zM138.688 426.669V213.336q0-0.786 0.038-1.57 0.039-0.785 0.116-1.567 0.077-0.781 0.192-1.558t0.268-1.548q0.154-0.77 0.345-1.532 0.19-0.762 0.418-1.514 0.228-0.752 0.493-1.492t0.565-1.465q0.301-0.726 0.637-1.436t0.706-1.403q0.37-0.693 0.774-1.366 0.404-0.674 0.84-1.327 0.437-0.653 0.905-1.284t0.966-1.239q0.499-0.607 1.026-1.189 0.528-0.582 1.083-1.137 0.556-0.556 1.138-1.083 0.582-0.528 1.189-1.026 0.607-0.499 1.238-0.967 0.631-0.468 1.284-0.904 0.653-0.437 1.327-0.84 0.674-0.404 1.367-0.775 0.693-0.37 1.403-0.706 0.71-0.336 1.436-0.636 0.725-0.3 1.465-0.565 0.74-0.265 1.491-0.493 0.752-0.228 1.514-0.42 0.762-0.19 1.533-0.343 0.77-0.153 1.547-0.269 0.777-0.115 1.559-0.192 0.782-0.077 1.566-0.116 0.785-0.038 1.57-0.038 1.118 0 2.233 0.078t2.222 0.233q1.107 0.156 2.2 0.388 1.093 0.233 2.167 0.54 1.075 0.31 2.125 0.691 1.05 0.383 2.071 0.837 1.021 0.455 2.008 0.98 0.987 0.525 1.935 1.117l170.667 106.667q0.666 0.416 1.31 0.865 0.645 0.448 1.268 0.928 0.622 0.48 1.22 0.989 0.598 0.51 1.17 1.048t1.116 1.104q0.546 0.566 1.062 1.157 0.516 0.592 1.003 1.209 0.488 0.616 0.944 1.256 0.455 0.64 0.88 1.3 0.424 0.662 0.815 1.343 0.392 0.68 0.748 1.38 0.358 0.7 0.68 1.416 0.324 0.717 0.61 1.448 0.287 0.731 0.538 1.476 0.252 0.744 0.466 1.5 0.214 0.756 0.39 1.521 0.176 0.766 0.315 1.539 0.14 0.773 0.24 1.552 0.1 0.779 0.163 1.562t0.087 1.568q0.024 0.786 0.009 1.57-0.016 0.786-0.069 1.57-0.053 0.784-0.143 1.564-0.093 0.78-0.223 1.555-0.128 0.775-0.296 1.542-0.168 0.768-0.373 1.526-0.206 0.759-0.447 1.506-0.243 0.747-0.52 1.482-0.279 0.734-0.594 1.454-0.314 0.72-0.663 1.424-0.349 0.704-0.732 1.39-0.382 0.685-0.798 1.352-0.963 1.54-2.094 2.96-1.132 1.423-2.416 2.707-1.284 1.284-2.706 2.415-1.42 1.13-2.96 2.094L187.648 453.805q-0.667 0.417-1.352 0.8-0.686 0.383-1.39 0.732-0.704 0.349-1.424 0.663-0.72 0.314-1.454 0.593-0.735 0.278-1.482 0.52-0.748 0.242-1.506 0.447-0.758 0.205-1.526 0.373-0.767 0.167-1.542 0.297-0.775 0.13-1.555 0.22-0.78 0.093-1.564 0.146-0.784 0.053-1.57 0.068-0.785 0.014-1.57-0.01-0.785-0.023-1.568-0.086-0.783-0.062-1.562-0.163-0.78-0.101-1.552-0.24-0.774-0.14-1.539-0.315-0.765-0.177-1.521-0.391-0.756-0.214-1.5-0.465-0.745-0.25-1.476-0.537-0.732-0.288-1.448-0.61-0.716-0.323-1.416-0.68-0.7-0.357-1.38-0.75-0.682-0.39-1.343-0.814-0.661-0.424-1.3-0.88-0.64-0.456-1.257-0.943-0.616-0.487-1.208-1.004-0.592-0.516-1.157-1.061-0.566-0.546-1.104-1.118-0.539-0.572-1.048-1.17-0.51-0.597-0.99-1.22-0.479-0.622-0.928-1.267-0.448-0.645-0.864-1.311-0.593-0.947-1.118-1.934-0.524-0.987-0.979-2.008-0.455-1.021-0.837-2.071-0.382-1.05-0.69-2.125-0.309-1.074-0.541-2.167-0.232-1.094-0.388-2.2-0.155-1.107-0.233-2.222-0.078-1.115-0.078-2.233z m64 0h-32l-16.96-27.136 170.666-106.666 16.96 27.136-16.96 27.136-170.667-106.667 16.96-27.136h32v213.333z" ></path> </svg>