<svg fill="#fff" height="24" viewBox="0 0 20 20" width="24" xmlns="http://www.w3.org/2000/svg" > <clipPath id="a"> <path d="m0 .5h20v19h-20z"></path> </clipPath> <g fill="#fff"> <path d="m15 14.5h-1.559l-9.7-10.673c-.09376-.10305-.20802-.18536-.33545-.24168-.12744-.05631-.26523-.08537-.40455-.08532h-3.001v2h2.559l4.09 4.5-4.09 4.501h-2.559v2h3.001c.13932 0 .27711-.029.40455-.0853.12743-.0563.24169-.1387.33545-.2417l4.259-4.687 4.259 4.686c.0938.103.208.1854.3355.2417.1274.0563.2652.0853.4045.0853h2.001v3l5-4-5-4z"></path> <path d="m13.4406 5.5h1.559v3l5-3.938-5-4.062v3h-2.001c-.1393-.00005-.2771.02901-.4045.08532-.1275.05632-.2417.13863-.3355.24168l-3.36798 3.707 1.47998 1.346z"></path> </g> </svg>