<?xml version="1.0" standalone="no"?><!DOCTYPE svg PUBLIC "-//W3C//DTD SVG 1.1//EN" "http://www.w3.org/Graphics/SVG/1.1/DTD/svg11.dtd"><svg t="1722169278914" class="icon" viewBox="0 0 1024 1024" version="1.1" xmlns="http://www.w3.org/2000/svg" p-id="2352" xmlns:xlink="http://www.w3.org/1999/xlink" width="200" height="200"><path d="M320 512m-42.666667 0a42.666667 42.666667 0 1 0 85.333334 0 42.666667 42.666667 0 1 0-85.333334 0Z" p-id="2353" fill="#8a8a8a"></path><path d="M512 512m-42.666667 0a42.666667 42.666667 0 1 0 85.333334 0 42.666667 42.666667 0 1 0-85.333334 0Z" p-id="2354" fill="#8a8a8a"></path><path d="M704 512m-42.666667 0a42.666667 42.666667 0 1 0 85.333334 0 42.666667 42.666667 0 1 0-85.333334 0Z" p-id="2355" fill="#8a8a8a"></path><path d="M512 85.333333A426.666667 426.666667 0 0 0 85.333333 512v384a42.666667 42.666667 0 0 0 42.666667 42.666667h384a426.666667 426.666667 0 0 0 0-853.333334z m0 768H170.666667V512a341.333333 341.333333 0 1 1 341.333333 341.333333z" p-id="2356" fill="#8a8a8a"></path></svg>